# xmcd
#
# Track frame offsets:
#	150
#	6405
#	23762
#	42395
#	58397
#	69802
#	79975
#	99475
#	110477
#	122275
#	143967
#	162767
#	185550
#
# Disc length: 2814 seconds
#
# Revision: 1
# Processed by: cddbd v1.5.2PL0 Copyright (c) Steve Scherf et al.
# Submitted via: audiograbber 1.83.01
#
DISCID=ac0afc0d
DTITLE=Foo Fighters (The Colour And The Shape) - The Colour And The Shape
DYEAR=1997
DGENRE=Rock
TTITLE0=Doll
TTITLE1=Monkey wrench
TTITLE2=Hey, Johnny Park!
TTITLE3=My poor brain
TTITLE4=Wind up
TTITLE5=Up in arms
TTITLE6=My hero
TTITLE7=See you
TTITLE8=Enough space
TTITLE9=February stars
TTITLE10=Everlong
TTITLE11=Walking after you
TTITLE12=New way home
EXTD=
EXTT0=
EXTT1=
EXTT2=
EXTT3=
EXTT4=
EXTT5=
EXTT6=
EXTT7=
EXTT8=
EXTT9=
EXTT10=
EXTT11=
EXTT12=
PLAYORDER=
